<mxfile host="app.diagrams.net" modified="2024-07-07T14:22:50.002Z" agent="Mozilla/5.0 (Windows NT 10.0; Win64; x64) AppleWebKit/537.36 (KHTML, like Gecko) Chrome/126.0.0.0 Safari/537.36" etag="WVUmUuQZKjoSaM-Xjdnl" version="24.6.4" type="github">
  <diagram name="Page-1" id="nlI5c6fU1N-37jEBttU2">
    <mxGraphModel dx="678" dy="362" grid="1" gridSize="10" guides="1" tooltips="1" connect="1" arrows="1" fold="1" page="1" pageScale="1" pageWidth="850" pageHeight="1100" math="0" shadow="0">
      <root>
        <mxCell id="0" />
        <mxCell id="1" parent="0" />
        <mxCell id="Phnk7pw0QjDZ1ico6e5--5" style="edgeStyle=orthogonalEdgeStyle;rounded=0;orthogonalLoop=1;jettySize=auto;html=1;" edge="1" parent="1" source="Phnk7pw0QjDZ1ico6e5--1" target="Phnk7pw0QjDZ1ico6e5--2">
          <mxGeometry relative="1" as="geometry" />
        </mxCell>
        <mxCell id="Phnk7pw0QjDZ1ico6e5--1" value="Wallet" style="rounded=1;whiteSpace=wrap;html=1;" vertex="1" parent="1">
          <mxGeometry x="150" y="160" width="120" height="60" as="geometry" />
        </mxCell>
        <mxCell id="Phnk7pw0QjDZ1ico6e5--2" value="Abstraction" style="shape=process;whiteSpace=wrap;html=1;backgroundOutline=1;" vertex="1" parent="1">
          <mxGeometry x="240" y="300" width="120" height="60" as="geometry" />
        </mxCell>
        <mxCell id="Phnk7pw0QjDZ1ico6e5--4" style="edgeStyle=orthogonalEdgeStyle;rounded=0;orthogonalLoop=1;jettySize=auto;html=1;" edge="1" parent="1" source="Phnk7pw0QjDZ1ico6e5--3" target="Phnk7pw0QjDZ1ico6e5--2">
          <mxGeometry relative="1" as="geometry" />
        </mxCell>
        <mxCell id="Phnk7pw0QjDZ1ico6e5--3" value="Single Sign On" style="rounded=1;whiteSpace=wrap;html=1;" vertex="1" parent="1">
          <mxGeometry x="340" y="160" width="120" height="60" as="geometry" />
        </mxCell>
      </root>
    </mxGraphModel>
  </diagram>
</mxfile>
